# xmcd CD database file
#
# Track frame offsets:
#	150
#	13837
#	37312
#	57337
#	77287
#	89062
#	114675
#	140212
#	158512
#	175387
#	198000
#
# Disc length: 2935 seconds
#
# Revision: 0
# Processed by: cddbd v1.5.1PL0 Copyright (c) Steve Scherf et al.
# Submitted via: CDex 1.51
#
DISCID=950b750b
DTITLE=東野　純直 - Glissando
DYEAR=1900
DGENRE=J-Pop
TTITLE0=MY LIFE
TTITLE1=Long Days[album version]
TTITLE2=NO NAME
TTITLE3=STYLE
TTITLE4=水曜日
TTITLE5=２時間遅れのイブ[album version]
TTITLE6=I know[studio live]
TTITLE7=想い
TTITLE8=男と女
TTITLE9=何処にいるんだろう[album version]
TTITLE10=ビルの稜線
EXTD=
EXTT0=
EXTT1=
EXTT2=
EXTT3=
EXTT4=
EXTT5=
EXTT6=
EXTT7=
EXTT8=
EXTT9=
EXTT10=
PLAYORDER=
